<?xml version="1.0" encoding="UTF-8" standalone="no"?>
<svg width="975.479" height="228.305" viewBox="247.50900000000001 487.271 975.479 228.305" version="1.1" xmlns="http://www.w3.org/2000/svg"><path d="M 327 524.035 C 298.335 528.901, 278.669 544.731, 269.895 570 C 267.989 575.491, 267.628 578.673, 267.569 590.500 C 267.509 602.588, 267.817 605.456, 269.822 611.500 C 274.332 625.096, 280.637 634.219, 291.310 642.591 C 304.902 653.254, 319.125 658.087, 337.500 658.287 C 343.550 658.353, 351.200 657.834, 354.500 657.133 C 359.908 655.985, 368.802 653.197, 369.949 652.290 C 370.196 652.095, 365.987 647.508, 360.596 642.096 C 350.845 632.308, 350.775 632.262, 347.147 633.105 C 331.262 636.796, 313.162 629.816, 303.968 616.453 C 296.605 605.752, 294.275 589.198, 298.416 577 C 307.008 551.684, 336.227 540.658, 360.178 553.693 C 374.960 561.739, 383.189 580.292, 380.108 598.628 L 378.818 606.306 389.454 616.903 C 401.480 628.886, 400.172 628.836, 405.089 617.500 C 409 608.480, 410.318 601.592, 410.249 590.517 C 410.154 575.406, 407.112 565.379, 398.827 552.880 C 390.545 540.385, 373.112 528.812, 357.500 525.447 C 348.516 523.510, 334.038 522.840, 327 524.035 M 429.940 525.500 C 429.682 525.500, 429.574 641.375, 429.826 647.750 L 430.152 656 444.576 656 L 459 656 459 636.973 L 459 617.947 473.709 618.223 L 488.418 618.500 499.623 635.500 C 505.785 644.850, 511.429 653.306, 512.164 654.290 C 513.366 655.901, 515.076 656.051, 529.201 655.790 L 544.903 655.500 530.872 634.663 C 523.155 623.202, 516.989 613.706, 517.171 613.559 C 517.352 613.412, 519.975 611.725, 523 609.809 C 533.944 602.877, 540.270 593.023, 542.223 579.861 C 546.017 554.301, 530.563 532.715, 504.724 527.482 C 498.584 526.238, 470.720 525.500, 429.940 525.500 M 459 572.551 L 459 595.223 476.750 594.805 C 492.602 594.432, 495.062 594.139, 499.757 592.067 C 509.372 587.824, 513.780 579.964, 512.662 569.055 C 511.922 561.832, 508.068 556.292, 501.493 553 C 496.786 550.643, 495.427 550.482, 477.750 550.189 L 459 549.879 459 572.551 M 312 573.500 L 312 582 320.500 582 L 329 582 329 573.500 L 329 565 320.500 565 L 312 565 312 573.500 M 338.008 567.015 C 338.867 568.621, 338.753 569.158, 337.442 569.661 C 336.521 570.014, 335.426 569.690, 334.953 568.925 C 334.489 568.173, 333.806 567.861, 333.435 568.231 C 332.636 569.030, 335.389 572, 336.929 572 C 337.518 572, 338.014 572.788, 338.032 573.750 C 338.062 575.417, 338.127 575.417, 339.392 573.750 C 341.020 571.605, 343 571.468, 343 573.500 C 343 574.325, 343.450 575, 344 575 C 344.550 575, 345 572.750, 345 570 C 345 565.005, 343.817 563.445, 342.536 566.750 C 341.889 568.417, 341.796 568.417, 340.568 566.750 C 338.694 564.206, 336.619 564.420, 338.008 567.015 M 348 573.500 L 348 582 356.500 582 L 365 582 365 573.500 L 365 565 356.500 565 L 348 565 348 573.500 M 314 573.500 L 314 580 320.500 580 L 327 580 327 573.500 L 327 567 320.500 567 L 314 567 314 573.500 M 350 573.500 L 350 580 356.500 580 L 363 580 363 573.500 L 363 567 356.500 567 L 350 567 350 573.500 M 317 573.500 C 317 576.833, 317.167 577, 320.500 577 C 323.833 577, 324 576.833, 324 573.500 C 324 570.167, 323.833 570, 320.500 570 C 317.167 570, 317 570.167, 317 573.500 M 353 573.500 C 353 576.833, 353.167 577, 356.500 577 C 359.833 577, 360 576.833, 360 573.500 C 360 570.167, 359.833 570, 356.500 570 C 353.167 570, 353 570.167, 353 573.500 M 333 580 C 333 584.889, 332.933 585, 330 585 C 328 585, 327 585.500, 327 586.500 C 327 587.500, 328 588, 330 588 C 332.533 588, 333 588.389, 333 590.500 C 333 591.875, 332.550 593, 332 593 C 331.450 593, 331 593.675, 331 594.500 C 331 595.333, 330.111 596, 329 596 C 327.900 596, 327 596.450, 327 597 C 327 597.550, 328.350 598, 330 598 C 332 598, 333 597.500, 333 596.500 C 333 594.798, 334.567 594.490, 335.504 596.007 C 335.847 596.561, 335.423 597.284, 334.563 597.614 C 332.173 598.531, 332.535 603, 335 603 C 336.111 603, 337 602.333, 337 601.500 C 337 600.675, 337.727 600, 338.617 600 C 339.757 600, 340.074 599.393, 339.694 597.939 C 339.364 596.677, 339.707 595.666, 340.578 595.332 C 342.869 594.453, 342.296 592.110, 339.941 592.726 C 338.428 593.121, 337.734 592.699, 337.324 591.132 C 337.018 589.959, 336.369 589, 335.883 589 C 335.398 589, 335 586.750, 335 584 C 335 581.250, 335.450 579, 336 579 C 337.614 579, 337.146 576.270, 335.418 575.607 C 334.548 575.273, 333.648 575, 333.418 575 C 333.188 575, 333 577.250, 333 580 M 340 585 C 340 587.008, 341.330 587.498, 345.750 587.118 C 347.192 586.994, 348 587.477, 348 588.462 C 348 590.302, 350.619 590.528, 351.341 588.750 C 351.728 587.794, 352.047 587.779, 352.694 588.687 C 353.160 589.341, 354.769 590.342, 356.270 590.913 C 357.772 591.483, 359 592.637, 359 593.475 C 359 594.314, 359.450 595, 360 595 C 360.550 595, 361 594.070, 361 592.933 C 361 591.320, 361.440 591.005, 363 591.500 C 364.560 591.995, 365 591.680, 365 590.067 C 365 588.896, 364.350 588, 363.500 588 C 362.675 588, 362 587.325, 362 586.500 C 362 585.675, 361.550 585, 361 585 C 360.450 585, 360 585.675, 360 586.500 C 360 587.503, 358.997 588, 356.969 588 C 355.197 588, 353.698 587.377, 353.362 586.500 C 352.948 585.423, 351.264 585, 347.393 585 C 344.427 585, 342 584.550, 342 584 C 342 583.450, 341.550 583, 341 583 C 340.450 583, 340 583.900, 340 585 M 312.180 587.250 C 312.386 588.696, 313.304 589.614, 314.750 589.820 C 315.988 589.995, 317 590.752, 317 591.500 C 317 592.248, 315.988 593.005, 314.750 593.180 C 313.279 593.389, 312.500 594.188, 312.500 595.486 C 312.500 598.483, 315.636 598.588, 316.381 595.617 C 317.091 592.789, 320.628 591.220, 322.351 592.968 C 323.218 593.849, 323.071 594.451, 321.750 595.428 C 319.805 596.865, 319.474 598, 321 598 C 322.646 598, 326.122 594.007, 325.439 592.902 C 325.091 592.338, 323.724 591.466, 322.403 590.963 C 319.481 589.852, 319.278 588.002, 322 587.290 C 326.032 586.235, 323.837 585, 317.930 585 C 312.208 585, 311.879 585.129, 312.180 587.250 M 343 590.893 C 343 591.502, 343.675 592, 344.500 592 C 345.325 592, 346 592.689, 346 593.531 C 346 594.374, 345.325 595.322, 344.500 595.638 C 340.969 596.993, 343.526 598, 350.500 598 C 354.833 598, 358 597.578, 358 597 C 358 596.450, 356.875 596, 355.500 596 C 353.944 596, 353 595.433, 353 594.500 C 353 593.675, 352.550 593, 352 593 C 351.450 593, 351 593.450, 351 594 C 351 594.550, 350.325 595, 349.500 595 C 348.667 595, 348 594.111, 348 593 C 348 591.900, 347.587 591, 347.082 591 C 346.577 591, 345.452 590.727, 344.582 590.393 C 343.712 590.059, 343 590.284, 343 590.893 M 312 609.500 L 312 618 320.500 618 L 329 618 329 609.500 L 329 601 320.500 601 L 312 601 312 609.500 M 314 609.500 L 314 616 320.500 616 L 327 616 327 609.500 L 327 603 320.500 603 L 314 603 314 609.500 M 351 612.632 L 351 621.553 368.446 638.777 L 385.892 656 401.694 656 L 417.495 656 391.932 630.437 L 366.369 604.874 358.684 604.292 L 351 603.711 351 612.632 M 317 609.500 C 317 612.833, 317.167 613, 320.500 613 C 323.833 613, 324 612.833, 324 609.500 C 324 606.167, 323.833 606, 320.500 606 C 317.167 606, 317 606.167, 317 609.500 M 337 607 C 337 607.550, 336.100 608, 335 608 C 333.308 608, 333 608.667, 333 612.333 C 333 617.251, 333.719 618.478, 335.658 616.869 C 336.645 616.050, 337 616.052, 337 616.878 C 337 617.495, 337.450 618, 338 618 C 338.550 618, 339 617.100, 339 616 C 339 614.900, 338.550 614, 338 614 C 336.423 614, 336.835 611.001, 338.500 610.362 C 339.325 610.045, 340 608.934, 340 607.893 C 340 606.852, 339.325 606, 338.500 606 C 337.675 606, 337 606.450, 337 607" stroke="none" fill="#194a85" fill-rule="evenodd" /><path d="M 1172.500 516.149 C 1167 521.094, 1157.816 529.271, 1152.091 534.320 L 1141.681 543.500 1146.591 543.751 C 1156.124 544.239, 1158 544.858, 1158 547.512 C 1158 549.749, 1153.992 576.374, 1150.488 597.418 C 1149.671 602.323, 1149.152 606.485, 1149.334 606.667 C 1150.197 607.530, 1171.575 611.759, 1172.102 611.171 C 1172.575 610.644, 1181.403 577.471, 1186.785 556 C 1187.846 551.765, 1189.189 551.682, 1197.250 555.355 C 1201.042 557.083, 1202.988 557.553, 1202.964 556.737 C 1202.895 554.334, 1184.469 507.658, 1183.492 507.409 C 1182.946 507.271, 1178 511.203, 1172.500 516.149 M 447.750 525.748 C 456.688 525.914, 471.313 525.914, 480.250 525.748 C 489.188 525.582, 481.875 525.447, 464 525.447 C 446.125 525.447, 438.813 525.582, 447.750 525.748 M 678.245 526.250 C 677.696 526.938, 673.309 536.275, 668.498 547 C 663.687 557.725, 654.685 577.750, 648.495 591.500 C 642.305 605.250, 633.361 625.124, 628.620 635.665 C 623.879 646.206, 620 655.318, 620 655.915 C 620 657.555, 649.452 657.397, 650.711 655.750 C 651.236 655.063, 653.847 649.100, 656.513 642.500 C 659.178 635.900, 661.784 629.938, 662.302 629.250 C 663.020 628.298, 670.465 628, 693.500 628 C 716.491 628, 724.001 628.300, 724.779 629.250 C 725.342 629.938, 728.310 636.350, 731.374 643.500 L 736.945 656.500 752.723 656.500 C 762.714 656.500, 768.423 656.133, 768.290 655.500 C 768.175 654.950, 763.068 643.475, 756.941 630 C 750.814 616.525, 743.403 600.100, 740.470 593.500 C 732.377 575.284, 710.571 527.667, 709.674 526.250 C 709.098 525.342, 704.829 525, 694.063 525 C 683.408 525, 678.964 525.351, 678.245 526.250 M 429.419 548 C 429.419 558.725, 429.566 563.112, 429.746 557.750 C 429.925 552.388, 429.925 543.612, 429.746 538.250 C 429.566 532.888, 429.419 537.275, 429.419 548 M 683.122 579.644 C 677.444 593.112, 673.003 604.336, 673.253 604.586 C 673.503 604.837, 682.996 604.920, 694.347 604.771 L 714.986 604.500 706.149 584 C 701.289 572.725, 696.759 561.819, 696.083 559.764 C 695.407 557.709, 694.537 555.832, 694.150 555.593 C 693.763 555.353, 688.800 566.177, 683.122 579.644 M 960.799 557.033 C 949.047 558.351, 930 565.834, 930 569.133 C 930 569.710, 932.064 574.178, 934.586 579.062 L 939.172 587.942 944.836 585.083 C 956.185 579.356, 968.855 577.443, 978.219 580.044 C 985.227 581.990, 991 588.910, 991 595.364 L 991 597.791 971.250 598.248 C 948.335 598.778, 942.450 600.211, 934.517 607.194 C 927.566 613.313, 925.538 617.887, 925.517 627.500 C 925.502 634.613, 925.844 636.110, 928.599 641 C 932.190 647.373, 938.727 652.762, 946.261 655.556 C 950.408 657.095, 954.002 657.491, 963.500 657.457 C 977.142 657.408, 981.696 655.980, 988.865 649.503 L 992.891 645.866 993.195 651.183 L 993.500 656.500 1006.750 656.779 L 1020 657.058 1019.983 625.279 C 1019.964 590.685, 1019.171 583.379, 1014.584 575.553 C 1011.607 570.474, 1005.550 564.831, 1000.076 562.039 C 991.063 557.440, 975.197 555.418, 960.799 557.033 M 758.030 558.750 C 758.047 559.163, 765.650 581.325, 774.925 608 L 791.789 656.500 805.536 656.500 C 816.725 656.500, 819.434 656.221, 820.099 655 C 820.548 654.175, 825.034 640.747, 830.068 625.160 C 835.102 609.573, 839.574 597.198, 840.007 597.660 C 840.440 598.122, 844.947 611.100, 850.021 626.500 C 855.096 641.900, 859.698 655.063, 860.247 655.750 C 860.951 656.632, 864.995 657, 874 657 C 883.013 657, 887.044 656.633, 887.739 655.750 C 888.280 655.063, 889.872 651.125, 891.278 647 C 899.105 624.033, 916.479 573.483, 919.005 566.325 L 921.944 558 908.720 558 L 895.497 558 890.819 572.250 C 888.246 580.087, 883.573 594.487, 880.435 604.250 C 877.297 614.013, 874.430 622, 874.064 622 C 873.699 622, 868.723 607.587, 863.006 589.972 L 852.613 557.943 840.097 558.222 L 827.580 558.500 826.333 562 C 825.647 563.925, 820.980 578.266, 815.962 593.869 C 810.944 609.472, 806.476 621.847, 806.034 621.369 C 805.592 620.891, 800.655 606.438, 795.061 589.250 L 784.892 558 771.446 558 C 764.051 558, 758.014 558.337, 758.030 558.750 M 1027.941 564.750 C 1031.195 572.520, 1033.776 578.433, 1036.969 585.437 C 1038.207 588.152, 1043.619 600.527, 1048.996 612.937 C 1054.372 625.347, 1060.903 640.316, 1063.508 646.202 L 1068.246 656.905 1065.544 661.515 C 1061.941 667.663, 1057.946 669.992, 1050.992 669.996 C 1046.989 669.999, 1044.163 669.297, 1040.649 667.426 C 1037.990 666.011, 1035.696 664.998, 1035.552 665.176 C 1035.407 665.354, 1033.231 669.880, 1030.716 675.233 L 1026.143 684.966 1028.822 686.868 C 1039.426 694.402, 1058.653 695.576, 1071.414 689.470 C 1082.276 684.272, 1089.858 673.805, 1098.160 652.548 C 1099.244 649.771, 1105.018 636.025, 1110.991 622 C 1116.963 607.975, 1125.468 587.950, 1129.890 577.500 L 1137.930 558.500 1124.294 558.221 C 1116.795 558.067, 1110.331 558.292, 1109.930 558.721 C 1109.530 559.149, 1103.701 572.775, 1096.976 589 C 1090.252 605.225, 1084.168 619.625, 1083.456 621 L 1082.160 623.500 1081.120 620.789 C 1079.178 615.730, 1072.867 600.568, 1063.830 579.250 L 1054.822 558 1039.968 558 L 1025.113 558 1027.941 564.750 M 320.212 564.723 L 328.923 565.077 329.274 573.541 L 329.624 582.005 329.562 573.253 L 329.500 564.500 320.500 564.434 L 311.500 564.369 320.212 564.723 M 356.184 564.722 C 363.325 565.013, 364.958 565.380, 365.377 566.788 C 365.754 568.058, 365.833 567.984, 365.681 566.500 C 365.495 564.669, 364.718 564.494, 356.489 564.434 L 347.500 564.369 356.184 564.722 M 335.750 575.662 C 336.438 575.940, 337 576.804, 337 577.583 C 337 578.362, 336.438 579.007, 335.750 579.015 C 334.892 579.026, 334.956 579.319, 335.952 579.949 C 336.751 580.455, 337.763 580.646, 338.202 580.375 C 338.641 580.104, 339 580.584, 339 581.441 C 339 582.298, 339.637 583, 340.417 583 C 341.196 583, 342.023 583.563, 342.254 584.250 C 342.485 584.938, 342.682 583.925, 342.691 582 C 342.700 580.075, 342.515 579.288, 342.280 580.250 C 341.759 582.387, 340 582.580, 340 580.500 C 340 579.675, 339.602 579, 339.117 579 C 338.631 579, 337.998 578.100, 337.710 577 C 337.423 575.900, 336.583 575.036, 335.844 575.079 C 334.833 575.138, 334.810 575.283, 335.750 575.662 M 324 585.717 C 324 586.294, 323.100 587.002, 322 587.290 C 319.265 588.005, 319.486 589.854, 322.439 590.977 C 323.781 591.487, 325.372 592.826, 325.974 593.952 C 327.053 595.967, 331 596.864, 331 595.094 C 331 594.595, 330.100 594.423, 329 594.710 C 326.691 595.314, 326.254 593.500, 328.500 592.638 C 330.566 591.845, 330.390 589.997, 328.250 590.015 C 326.754 590.028, 326.718 590.172, 328 591 C 330.328 592.505, 327.078 592.315, 323.707 590.750 C 320.783 589.392, 320.142 588, 322.441 588 C 324.071 588, 325.511 586.178, 324.600 585.267 C 324.270 584.937, 324 585.139, 324 585.717 M 466.797 594.745 C 471.361 594.930, 478.561 594.929, 482.797 594.742 C 487.034 594.555, 483.300 594.404, 474.500 594.405 C 465.700 594.406, 462.234 594.559, 466.797 594.745 M 429.395 610.500 C 429.396 618.200, 429.553 621.218, 429.743 617.206 C 429.934 613.195, 429.932 606.895, 429.741 603.206 C 429.549 599.518, 429.393 602.800, 429.395 610.500 M 320.212 600.723 L 328.923 601.077 329.274 609.541 L 329.624 618.005 329.562 609.253 L 329.500 600.500 320.500 600.434 L 311.500 600.369 320.212 600.723 M 390 628.500 C 401.265 639.775, 410.707 649, 410.982 649 C 411.257 649, 402.265 639.775, 391 628.500 C 379.735 617.225, 370.293 608, 370.018 608 C 369.743 608, 378.735 617.225, 390 628.500 M 959.962 617.250 C 952.331 621.098, 951.397 629.640, 957.966 635.500 C 959.737 637.080, 961.951 637.573, 968.496 637.848 C 978.269 638.259, 982.087 636.860, 987.477 630.894 C 990.683 627.346, 991 626.454, 991 620.997 L 991 615 977.712 615 C 965.920 615, 963.921 615.253, 959.962 617.250 M 466.296 618.744 C 470.583 618.932, 477.333 618.931, 481.296 618.742 C 485.258 618.552, 481.750 618.399, 473.500 618.400 C 465.250 618.401, 462.008 618.556, 466.296 618.744 M 1150.685 622.993 C 1143.082 624.414, 1137.889 630.299, 1137.230 638.238 C 1136.329 649.099, 1142.489 656.165, 1153.370 656.751 C 1160.936 657.158, 1166.301 654.453, 1169.771 648.480 C 1173.041 642.850, 1172.521 634.683, 1168.561 629.492 C 1164.486 624.148, 1157.701 621.682, 1150.685 622.993 M 360.500 642 C 365.979 647.500, 370.687 652, 370.962 652 C 371.237 652, 366.979 647.500, 361.500 642 C 356.021 636.500, 351.313 632, 351.038 632 C 350.763 632, 355.021 636.500, 360.500 642 M 429.432 648.747 L 429.500 656.500 444.251 656.542 L 459.002 656.583 444.543 656.265 L 430.083 655.947 429.724 648.470 L 429.365 640.993 429.432 648.747 M 394.797 656.745 C 399.361 656.930, 406.561 656.929, 410.797 656.742 C 415.034 656.555, 411.300 656.404, 402.500 656.405 C 393.700 656.406, 390.234 656.559, 394.797 656.745 M 521.797 656.745 C 526.361 656.930, 533.561 656.929, 537.797 656.742 C 542.034 656.555, 538.300 656.404, 529.500 656.405 C 520.700 656.406, 517.234 656.559, 521.797 656.745" stroke="none" fill="#118495" fill-rule="evenodd" /></svg>